<svg width="281" height="64" viewBox="0 0 281 64" fill="none" xmlns="http://www.w3.org/2000/svg">
    <path fill-rule="evenodd" clip-rule="evenodd" d="M72.2406 39.2743C73.8824 39.2743 75.4798 38.8724 76.9254 38.0951C78.3336 37.3383 79.5181 36.2275 80.3626 34.8684C81.1855 33.5445 81.621 32.0231 81.622 30.4655C81.621 28.905 81.1855 27.3835 80.3626 26.0596C79.5181 24.7015 78.3336 23.5888 76.9254 22.833C75.4798 22.0556 73.8824 21.6528 72.2406 21.6528C70.5989 21.6528 68.9739 22.0556 67.5283 22.833C66.1181 23.5888 64.9346 24.7015 64.0901 26.0596C63.2692 27.3835 62.8346 28.905 62.8307 30.4655C62.8346 32.0231 63.2692 33.5445 64.0901 34.8684C64.9346 36.2275 66.1181 37.3383 67.5283 38.0951C68.9739 38.8724 70.5989 39.2743 72.2406 39.2743ZM90.9118 30.4264C90.9118 33.4985 90.0475 36.4739 88.4107 39.1031C86.7453 41.7725 84.3882 43.9695 81.5718 45.4733C78.7061 47.0094 75.5113 47.8092 72.2387 47.8092C68.967 47.8092 65.7495 47.0153 62.8819 45.4821C60.0636 43.9793 57.7034 41.7852 56.0351 39.1168C54.3973 36.4905 53.5311 33.4917 53.5252 30.4195C53.5252 27.3474 54.3884 24.3456 56.0213 21.7193C56.0637 21.6567 56.0676 21.5785 56.0292 21.5149C55.9917 21.4514 55.9208 21.4152 55.8459 21.4191H48.0146C47.9111 21.4191 47.8116 21.4582 47.7377 21.5316C47.6618 21.6029 47.6204 21.6997 47.6204 21.8004V36.5277C47.6204 37.7039 48.3161 38.7736 49.408 39.2831C50.4969 39.7934 51.7918 39.6507 52.7388 38.9144V46.3592C52.7388 46.4228 52.7043 46.4814 52.6491 46.5186C49.8731 48.3206 46.2999 48.4907 43.3544 46.9625C40.409 45.4313 38.5711 42.4501 38.5711 39.2029V21.8004C38.5711 21.6997 38.5297 21.6029 38.4538 21.5316C38.3809 21.4582 38.2794 21.4191 38.1769 21.4191H11.0212C10.2003 21.3839 9.42573 21.7848 8.99411 22.4634C8.56347 23.142 8.54377 23.9926 8.94385 24.6908C9.34493 25.3879 10.1017 25.8181 10.9226 25.8181H23.7126C27.615 25.8181 31.2217 27.8402 33.1699 31.1245C35.1231 34.4088 35.1231 38.4549 33.1699 41.7363C31.2217 45.0196 27.615 47.0446 23.7126 47.0446H10.9226C5.76187 47.0446 1.30768 43.5354 0.237491 38.6289H23.6151C24.435 38.6641 25.2105 38.2662 25.6421 37.5866C26.0708 36.9071 26.0915 36.0535 25.6904 35.3583C25.2913 34.6601 24.5345 34.2289 23.7126 34.2289L10.9226 34.2319C7.02126 34.2319 3.41554 32.2089 1.46338 28.9255C-0.487793 25.6411 -0.487793 21.5951 1.46338 18.3098C3.41554 15.0264 7.11882 13.0044 11.0212 13.0044H38.1769C38.2794 13.0044 38.3809 12.9633 38.4538 12.892C38.5297 12.8216 38.5711 12.7238 38.5711 12.6201V8.79606C38.5711 6.46309 39.5221 4.22692 41.22 2.57741C42.9189 0.925952 45.2189 0 47.6204 0V12.6201C47.6204 12.7238 47.6618 12.8216 47.7377 12.892C47.8116 12.9633 47.9111 13.0044 48.0146 13.0044H72.2387C75.5113 13.0044 78.6972 13.8023 81.5649 15.3354C84.3803 16.8392 86.7384 19.0343 88.4068 21.7036C90.0426 24.3319 90.9118 27.3542 90.9118 30.4264Z" fill="black"/>
    <path fill-rule="evenodd" clip-rule="evenodd" d="M110.747 43.0351H281V9.93164H110.747V43.0351Z" fill="#FFD700"/>
    <path d="M115.834 53.2598C114.912 53.2598 114.188 53.5684 113.66 54.1855C113.133 54.8027 112.869 55.6465 112.869 56.7168C112.869 57.8223 113.125 58.6758 113.637 59.2773C114.148 59.875 114.877 60.1738 115.822 60.1738C116.432 60.1738 117.117 60.0605 117.879 59.834V60.7715C117.516 60.9043 117.166 60.9941 116.83 61.041C116.494 61.0918 116.107 61.1172 115.67 61.1172C114.408 61.1172 113.436 60.7344 112.752 59.9688C112.072 59.1992 111.732 58.1113 111.732 56.7051C111.732 55.8223 111.895 55.0488 112.219 54.3848C112.547 53.7207 113.021 53.209 113.643 52.8496C114.268 52.4902 115.002 52.3105 115.846 52.3105C116.752 52.3105 117.541 52.4785 118.213 52.8145L117.779 53.7285C117.096 53.416 116.447 53.2598 115.834 53.2598ZM124.043 55.457H121.939V61H120.896V55.457H118.822V54.5664H124.043V55.457ZM128.367 61.1172C127.504 61.1172 126.84 60.8066 126.375 60.1855H126.305L126.328 60.4258C126.359 60.7305 126.375 61.002 126.375 61.2402V63.8828H125.32V54.5664H126.188L126.328 55.4453H126.375C126.625 55.0938 126.914 54.8398 127.242 54.6836C127.57 54.5273 127.949 54.4492 128.379 54.4492C129.215 54.4492 129.863 54.7402 130.324 55.3223C130.789 55.9004 131.021 56.7168 131.021 57.7715C131.021 58.8223 130.789 59.6426 130.324 60.2324C129.859 60.8223 129.207 61.1172 128.367 61.1172ZM128.191 55.334C127.555 55.334 127.094 55.5137 126.809 55.873C126.527 56.2324 126.383 56.7969 126.375 57.5664V57.7715C126.375 58.6426 126.52 59.2734 126.809 59.6641C127.098 60.0508 127.566 60.2441 128.215 60.2441C128.754 60.2441 129.174 60.0254 129.475 59.5879C129.779 59.1504 129.932 58.541 129.932 57.7598C129.932 56.9746 129.779 56.375 129.475 55.9609C129.174 55.543 128.746 55.334 128.191 55.334ZM138.293 57.7715C138.293 58.8223 138.027 59.6426 137.496 60.2324C136.965 60.8223 136.23 61.1172 135.293 61.1172C134.711 61.1172 134.195 60.9824 133.746 60.7129C133.297 60.4395 132.951 60.0488 132.709 59.541C132.467 59.0332 132.346 58.4434 132.346 57.7715C132.346 56.7246 132.607 55.9102 133.131 55.3281C133.654 54.7422 134.389 54.4492 135.334 54.4492C136.24 54.4492 136.959 54.748 137.49 55.3457C138.025 55.9395 138.293 56.748 138.293 57.7715ZM133.436 57.7715C133.436 58.5801 133.594 59.1953 133.91 59.6172C134.23 60.0352 134.701 60.2441 135.322 60.2441C135.936 60.2441 136.402 60.0352 136.723 59.6172C137.043 59.1953 137.203 58.5801 137.203 57.7715C137.203 56.9629 137.041 56.3555 136.717 55.9492C136.396 55.5391 135.926 55.334 135.305 55.334C134.059 55.334 133.436 56.1465 133.436 57.7715ZM140.965 54.5664V58.4922L140.918 59.6289L140.895 59.957L144.34 54.5664H145.635V61H144.65V57.209L144.668 56.3945L144.697 55.6211L141.275 61H139.969V54.5664H140.965ZM152.133 55.457H150.029V61H148.986V55.457H146.912V54.5664H152.133V55.457ZM154.465 57.209H156.375C158.047 57.209 158.883 57.8164 158.883 59.0312C158.883 59.6719 158.666 60.1602 158.232 60.4961C157.799 60.832 157.164 61 156.328 61H153.41V54.5664H154.465V57.209ZM157.828 59.0898C157.828 58.7461 157.707 58.4922 157.465 58.3281C157.223 58.1641 156.818 58.082 156.252 58.082H154.465V60.1504H156.281C156.777 60.1504 157.158 60.0605 157.424 59.8809C157.693 59.7012 157.828 59.4375 157.828 59.0898ZM169.477 57.7715C169.477 58.8223 169.211 59.6426 168.68 60.2324C168.148 60.8223 167.414 61.1172 166.477 61.1172C165.895 61.1172 165.379 60.9824 164.93 60.7129C164.48 60.4395 164.135 60.0488 163.893 59.541C163.65 59.0332 163.529 58.4434 163.529 57.7715C163.529 56.7246 163.791 55.9102 164.314 55.3281C164.838 54.7422 165.572 54.4492 166.518 54.4492C167.424 54.4492 168.143 54.748 168.674 55.3457C169.209 55.9395 169.477 56.748 169.477 57.7715ZM164.619 57.7715C164.619 58.5801 164.777 59.1953 165.094 59.6172C165.414 60.0352 165.885 60.2441 166.506 60.2441C167.119 60.2441 167.586 60.0352 167.906 59.6172C168.227 59.1953 168.387 58.5801 168.387 57.7715C168.387 56.9629 168.225 56.3555 167.9 55.9492C167.58 55.5391 167.109 55.334 166.488 55.334C165.242 55.334 164.619 56.1465 164.619 57.7715ZM173.73 61.1172C172.805 61.1172 172.084 60.834 171.568 60.2676C171.053 59.6973 170.795 58.8809 170.795 57.8184C170.795 56.7402 171.055 55.9102 171.574 55.3281C172.098 54.7422 172.842 54.4492 173.807 54.4492C174.119 54.4492 174.428 54.4824 174.732 54.5488C175.041 54.6113 175.295 54.6934 175.494 54.7949L175.172 55.6738C174.629 55.4707 174.166 55.3691 173.783 55.3691C173.135 55.3691 172.656 55.5742 172.348 55.9844C172.039 56.3906 171.885 56.998 171.885 57.8066C171.885 58.584 172.039 59.1797 172.348 59.5938C172.656 60.0039 173.113 60.209 173.719 60.209C174.285 60.209 174.842 60.084 175.389 59.834V60.7715C174.943 61.002 174.391 61.1172 173.73 61.1172ZM182.508 57.7715C182.508 58.8223 182.242 59.6426 181.711 60.2324C181.18 60.8223 180.445 61.1172 179.508 61.1172C178.926 61.1172 178.41 60.9824 177.961 60.7129C177.512 60.4395 177.166 60.0488 176.924 59.541C176.682 59.0332 176.561 58.4434 176.561 57.7715C176.561 56.7246 176.822 55.9102 177.346 55.3281C177.869 54.7422 178.604 54.4492 179.549 54.4492C180.455 54.4492 181.174 54.748 181.705 55.3457C182.24 55.9395 182.508 56.748 182.508 57.7715ZM177.65 57.7715C177.65 58.5801 177.809 59.1953 178.125 59.6172C178.445 60.0352 178.916 60.2441 179.537 60.2441C180.15 60.2441 180.617 60.0352 180.938 59.6172C181.258 59.1953 181.418 58.5801 181.418 57.7715C181.418 56.9629 181.256 56.3555 180.932 55.9492C180.611 55.5391 180.141 55.334 179.52 55.334C178.273 55.334 177.65 56.1465 177.65 57.7715ZM185.455 57.2207C186.67 57.2207 187.277 56.8926 187.277 56.2363C187.277 55.627 186.791 55.3223 185.818 55.3223C185.51 55.3223 185.223 55.3516 184.957 55.4102C184.691 55.4688 184.373 55.5762 184.002 55.7324L183.633 54.8945C184.301 54.5977 185.049 54.4492 185.877 54.4492C186.631 54.4492 187.221 54.5996 187.646 54.9004C188.072 55.2012 188.285 55.6152 188.285 56.1426C188.285 56.873 187.883 57.3477 187.078 57.5664V57.6133C187.566 57.7539 187.926 57.957 188.156 58.2227C188.387 58.4883 188.502 58.8223 188.502 59.2246C188.502 59.8145 188.258 60.2773 187.77 60.6133C187.281 60.9492 186.609 61.1172 185.754 61.1172C184.809 61.1172 184.078 60.9785 183.562 60.7012V59.752C184.277 60.0879 185.004 60.2559 185.742 60.2559C186.293 60.2559 186.717 60.1641 187.014 59.9805C187.311 59.7969 187.459 59.5254 187.459 59.166C187.459 58.7988 187.309 58.5273 187.008 58.3516C186.707 58.1719 186.246 58.082 185.625 58.082H184.758V57.2207H185.455ZM191.121 54.5664V57.2441H194.613V54.5664H195.668V61H194.613V58.1348H191.121V61H190.066V54.5664H191.121ZM201.691 61L201.486 60.0859H201.439C201.119 60.4883 200.799 60.7617 200.479 60.9062C200.162 61.0469 199.762 61.1172 199.277 61.1172C198.645 61.1172 198.148 60.9512 197.789 60.6191C197.43 60.2871 197.25 59.8184 197.25 59.2129C197.25 57.9082 198.279 57.2246 200.338 57.1621L201.428 57.1211V56.7402C201.428 56.252 201.322 55.8926 201.111 55.6621C200.9 55.4277 200.562 55.3105 200.098 55.3105C199.758 55.3105 199.436 55.3613 199.131 55.4629C198.83 55.5645 198.547 55.6777 198.281 55.8027L197.959 55.0117C198.283 54.8398 198.637 54.7051 199.02 54.6074C199.402 54.5098 199.781 54.4609 200.156 54.4609C200.934 54.4609 201.512 54.6328 201.891 54.9766C202.27 55.3203 202.459 55.8672 202.459 56.6172V61H201.691ZM199.518 60.2676C200.107 60.2676 200.57 60.1094 200.906 59.793C201.246 59.4727 201.416 59.0195 201.416 58.4336V57.8535L200.467 57.8945C199.729 57.9219 199.189 58.0391 198.85 58.2461C198.514 58.4531 198.346 58.7793 198.346 59.2246C198.346 59.5605 198.447 59.8184 198.65 59.998C198.857 60.1777 199.146 60.2676 199.518 60.2676ZM205.512 54.5664V57.2441H209.004V54.5664H210.059V61H209.004V58.1348H205.512V61H204.457V54.5664H205.512ZM213.164 54.5664V57.2441H216.656V54.5664H217.711V61H216.656V58.1348H213.164V61H212.109V54.5664H213.164ZM225.352 57.7715C225.352 58.8223 225.086 59.6426 224.555 60.2324C224.023 60.8223 223.289 61.1172 222.352 61.1172C221.77 61.1172 221.254 60.9824 220.805 60.7129C220.355 60.4395 220.01 60.0488 219.768 59.541C219.525 59.0332 219.404 58.4434 219.404 57.7715C219.404 56.7246 219.666 55.9102 220.189 55.3281C220.713 54.7422 221.447 54.4492 222.393 54.4492C223.299 54.4492 224.018 54.748 224.549 55.3457C225.084 55.9395 225.352 56.748 225.352 57.7715ZM220.494 57.7715C220.494 58.5801 220.652 59.1953 220.969 59.6172C221.289 60.0352 221.76 60.2441 222.381 60.2441C222.994 60.2441 223.461 60.0352 223.781 59.6172C224.102 59.1953 224.262 58.5801 224.262 57.7715C224.262 56.9629 224.1 56.3555 223.775 55.9492C223.455 55.5391 222.984 55.334 222.363 55.334C221.117 55.334 220.494 56.1465 220.494 57.7715Z" fill="#151515"/>
</svg>