<svg width="11" height="11" viewBox="0 0 11 11" fill="none" xmlns="http://www.w3.org/2000/svg">
<path d="M5.74179 11.5209H2.4859C2.3014 11.5209 2.14663 11.4584 2.02161 11.3333C1.89658 11.2083 1.83428 11.0538 1.83472 10.8697V6.31145H0.727714C0.575772 6.31145 0.472669 6.24091 0.418404 6.09982C0.364139 5.95873 0.396698 5.83935 0.516081 5.74167L5.95342 0.84155C6.0728 0.722167 6.21932 0.662476 6.39297 0.662476C6.56662 0.662476 6.71313 0.722167 6.83251 0.84155L8.99768 2.79509V1.7532C8.99768 1.5687 9.0602 1.41394 9.18522 1.28891C9.31025 1.16388 9.46479 1.10159 9.64886 1.10202H10.3C10.4845 1.10202 10.6393 1.16453 10.7643 1.28956C10.8894 1.41459 10.9517 1.56913 10.9512 1.7532V4.55327L12.2699 5.74167C12.3892 5.83935 12.4218 5.95873 12.3675 6.09982C12.3133 6.24091 12.2102 6.31145 12.0582 6.31145H10.9512V10.8697C10.9512 11.0542 10.8887 11.209 10.7637 11.334C10.6387 11.459 10.4841 11.5213 10.3 11.5209H7.04415V7.61381H5.74179V11.5209ZM3.13707 10.2185H4.43943V6.96263C4.43943 6.77813 4.50195 6.62336 4.62697 6.49834C4.752 6.37331 4.90654 6.31102 5.09061 6.31145H7.69532C7.87983 6.31145 8.03459 6.37396 8.15962 6.49899C8.28464 6.62402 8.34694 6.77856 8.3465 6.96263V10.2185H9.64886V5.13933L6.39297 2.20902L3.13707 5.13933V10.2185ZM5.09061 5.02537H7.69532C7.69532 4.67808 7.56509 4.39308 7.30462 4.17037C7.04415 3.94767 6.74026 3.83654 6.39297 3.83697C6.04567 3.83697 5.74179 3.94832 5.48132 4.17103C5.22085 4.39373 5.09061 4.67851 5.09061 5.02537Z" fill="black"/>
</svg>
